<svg xmlns="http://www.w3.org/2000/svg" width="177.908" height="134.014" viewBox="0 0 177.908 134.014">
  <path id="Inbox-Icon-SVG-09uhnmf" d="M168.264,8.948H23.8A16.741,16.741,0,0,0,7.025,25.616V126.294A16.741,16.741,0,0,0,23.8,142.962h144.46a16.646,16.646,0,0,0,16.668-16.668V25.616A16.646,16.646,0,0,0,168.264,8.948m-7.445,22.113L102.368,76.511a10.341,10.341,0,0,1-12.668,0L32.028,31.061a2.048,2.048,0,0,1,1.222-3.667H159.6a2.048,2.048,0,0,1,1.222,3.667" transform="translate(-7.025 -8.948)"/>
</svg>
